<?xml version="1.0" encoding="utf-8"?>
<!-- Generator: Adobe Illustrator 16.0.0, SVG Export Plug-In . SVG Version: 6.00 Build 0)  -->
<!DOCTYPE svg PUBLIC "-//W3C//DTD SVG 1.1//EN" "http://www.w3.org/Graphics/SVG/1.1/DTD/svg11.dtd">
<svg version="1.1" xmlns="http://www.w3.org/2000/svg" xmlns:xlink="http://www.w3.org/1999/xlink" x="0px" y="0px" width="20px"
	 height="20px" viewBox="0 0 100 100" enable-background="new 0 0 100 100" xml:space="preserve">
<g id="Layer_1" display="none">
	<g display="inline">
		<g>
			<path fill="#007385" d="M84,95c0,1.104-0.896,2-2,2H30c-1.104,0-2-0.896-2-2V78c0-1.104,0.896-2,2-2h52c1.104,0,2,0.896,2,2V95z"
				/>
			<path fill="none" stroke="#003D58" stroke-miterlimit="10" d="M82.5,75.5c1.1,0,2,0.9,2,2v17c0,1.1-0.9,2-2,2h-52
				c-1.1,0-2-0.9-2-2v-17c0-1.1,0.9-2,2-2H82.5z"/>
		</g>
		<g>
			<path fill="#007385" d="M47,95c0,1.104-0.896,2-2,2H30c-1.104,0-2-0.896-2-2V40c0-1.104,0.896-2,2-2h15c1.104,0,2,0.896,2,2V95z"
				/>
			<path fill="none" stroke="#003D58" stroke-miterlimit="10" d="M47.5,94.5c0,1.1-0.9,2-2,2h-15c-1.1,0-2-0.9-2-2v-55
				c0-1.1,0.9-2,2-2h15c1.1,0,2,0.9,2,2V94.5z"/>
		</g>
		<g>
			<path fill="#007385" d="M17.491,43c-1.1,0-1.55-1.029-1-1.982L36.902,5.539c0.55-0.953,1.45-1.015,2-0.063l20.412,35.573
				c0.55,0.953,0.1,1.951-1,1.951H17.491z"/>
			<path fill="none" stroke="#003D58" stroke-miterlimit="10" d="M17.491,42.5c-1.1,0-1.55-0.779-1-1.732L36.902,5.414
				c0.55-0.953,1.45-0.953,2,0l20.412,35.354c0.55,0.953,0.1,1.732-1,1.732H17.491z"/>
		</g>
	</g>
</g>
<g id="Layer_1_copy">
	<g>
		<g>
			<path fill="#007385" d="M82.5,76c1.1,0,1.5,0.4,1.5,1.5v17c0,1.1-0.4,2.5-1.5,2.5h-52c-1.1,0-2.5-1.4-2.5-2.5v-50
				c0-1.1-0.4-1.5-1.5-1.5h-9.01c-1.1,0-1.55-1.029-1-1.982L36.9,5.537c0.55-0.953,1.45-1.015,2-0.063l20.41,35.575
				c0.55,0.953,0.1,1.951-1,1.951H49.5c-1.1,0-2.5,0.4-2.5,1.5v29c0,1.1,1.4,2.5,2.5,2.5H82.5z"/>
			<path fill="none" stroke="#003D58" stroke-miterlimit="10" d="M82.5,75.5c1.1,0,2,0.9,2,2v17c0,1.1-0.9,2-2,2h-52
				c-1.1,0-2-0.9-2-2v-50c0-1.1-0.9-2-2-2h-9.01c-1.1,0-1.55-0.779-1-1.732L36.9,5.412c0.55-0.953,1.45-0.953,2,0l20.41,35.356
				c0.55,0.953,0.1,1.732-1,1.732H49.5c-1.1,0-2,0.9-2,2v29c0,1.1,0.9,2,2,2H82.5z"/>
		</g>
	</g>
</g>
</svg>
