<?xml version="1.0" encoding="utf-8"?>
<!-- Generator: Adobe Illustrator 16.0.0, SVG Export Plug-In . SVG Version: 6.00 Build 0)  -->
<!DOCTYPE svg PUBLIC "-//W3C//DTD SVG 1.1//EN" "http://www.w3.org/Graphics/SVG/1.1/DTD/svg11.dtd">
<svg version="1.1" id="Layer_1" xmlns="http://www.w3.org/2000/svg" xmlns:xlink="http://www.w3.org/1999/xlink" x="0px" y="0px"
	 width="20px" height="20px" viewBox="0 0 100 100" enable-background="new 0 0 100 100" xml:space="preserve">
<g>
	<path fill="#FFF376" d="M88.836,26.495c1.1,0.002,1.995,0.905,1.989,2.005L90.511,87c-0.006,1.1-0.911,2-2.011,2h-77
		c-1.1,0-2.002-0.9-2.005-2L9.311,20.167C9.308,19.066,10.206,18,11.306,18h22c1.1,0,2.54,0.887,3.2,1.767l3.631,4.925
		c0.66,0.88,2.1,1.645,3.2,1.647L88.836,26.495z"/>
	<path fill="none" stroke="#F9D500" stroke-linecap="round" stroke-linejoin="round" stroke-miterlimit="40" d="M88.836,26.495
		c1.1,0.002,1.995,0.905,1.989,2.005l-0.314,58.75c-0.006,1.1-0.911,2.25-2.011,2.25h-77c-1.1,0-2.002-1.15-2.005-2.25L9.311,20.542
		c-0.003-1.101,0.895-2.042,1.995-2.042h22c1.1,0,2.54,0.637,3.2,1.517l3.631,4.8c0.66,0.88,2.1,1.582,3.2,1.584L88.836,26.495z"/>
</g>
</svg>
