<?xml version="1.0" encoding="utf-8"?>
<!-- Generator: Adobe Illustrator 16.0.0, SVG Export Plug-In . SVG Version: 6.00 Build 0)  -->
<!DOCTYPE svg PUBLIC "-//W3C//DTD SVG 1.1//EN" "http://www.w3.org/Graphics/SVG/1.1/DTD/svg11.dtd">
<svg version="1.1" id="Layer_1" xmlns="http://www.w3.org/2000/svg" xmlns:xlink="http://www.w3.org/1999/xlink" x="0px" y="0px"
	 width="20px" height="20px" viewBox="0 0 100 100" enable-background="new 0 0 100 100" xml:space="preserve">
<g>
	<path fill="#CCCCCC" d="M80,90.5c0,1.1-0.4,2.5-1.5,2.5h-56c-1.1,0-2.5-1.4-2.5-2.5v-81C20,8.4,21.4,8,22.5,8h35
		c1.1,0,2.637,0.386,3.414,1.164L78.836,27.21C79.613,27.988,80,29.399,80,30.5V90.5z"/>
	<path fill="none" stroke="#4D4D4D" stroke-miterlimit="10" d="M80.5,90.5c0,1.1-0.9,2-2,2h-56c-1.1,0-2-0.9-2-2v-81
		c0-1.1,0.9-2,2-2h35c1.1,0,2.637,0.636,3.414,1.414l18.172,18.171c0.777,0.778,1.414,2.314,1.414,3.414V90.5z"/>
</g>
<polygon display="none" fill="#FFFFFF" stroke="#000000" stroke-miterlimit="10" points="79.5,30.5 58.5,30.5 58.5,9.5 "/>
</svg>
