<?xml version="1.0" encoding="utf-8"?>
<!-- Generator: Adobe Illustrator 16.0.0, SVG Export Plug-In . SVG Version: 6.00 Build 0)  -->
<!DOCTYPE svg PUBLIC "-//W3C//DTD SVG 1.1//EN" "http://www.w3.org/Graphics/SVG/1.1/DTD/svg11.dtd">
<svg xmlns="http://www.w3.org/2000/svg" xmlns:xlink="http://www.w3.org/1999/xlink" x="0px" y="0px"
	 width="20px" height="20px" viewBox="0 0 20 20" enable-background="new 0 0 20 20" xml:space="preserve">
<g>
	<path fill="#E6E6E6" d="M10.339,2.209c-0.242-0.225-0.636-0.225-0.878,0L2.889,8.291C2.647,8.516,2.4,8.97,2.4,9.3v8.4
		c0,0.33,0.37,0.7,0.7,0.7h4.2c0.33,0,0.5-0.37,0.5-0.7v-4.4c0-0.33,0.37-0.5,0.7-0.5h2.8c0.33,0,0.5,0.17,0.5,0.5v4.4
		c0,0.33,0.37,0.7,0.7,0.7h4.2c0.329,0,0.5-0.37,0.5-0.7V9.3c0-0.33-0.147-0.784-0.39-1.009L10.339,2.209z"/>
	<path fill="none" stroke="#000000" stroke-miterlimit="10" d="M10.339,2.209c-0.242-0.225-0.636-0.225-0.878,0
		L2.939,8.291C2.697,8.516,2.5,8.97,2.5,9.3v8.4c0,0.33,0.27,0.6,0.6,0.6h4.2c0.33,0,0.6-0.27,0.6-0.6v-4.4c0-0.33,0.27-0.6,0.6-0.6
		h2.8c0.33,0,0.601,0.27,0.601,0.6v4.4c0,0.33,0.27,0.6,0.6,0.6h4.2c0.329,0,0.6-0.27,0.6-0.6V9.3c0-0.33-0.197-0.784-0.438-1.009
		L10.339,2.209z"/>
</g>
</svg>
