<?xml version="1.0" encoding="utf-8"?>
<!-- Generator: Adobe Illustrator 16.0.0, SVG Export Plug-In . SVG Version: 6.00 Build 0)  -->
<!DOCTYPE svg PUBLIC "-//W3C//DTD SVG 1.1//EN" "http://www.w3.org/Graphics/SVG/1.1/DTD/svg11.dtd">
<svg version="1.1" xmlns="http://www.w3.org/2000/svg" xmlns:xlink="http://www.w3.org/1999/xlink" x="0px" y="0px"
	 width="20px" height="20px" viewBox="0 0 100 100" enable-background="new 0 0 100 100" xml:space="preserve">
<g>
	<path fill="#E6E6E6" d="M51.694,11.046c-1.207-1.125-3.182-1.125-4.389,0L14.444,41.454C13.237,42.579,12,44.85,12,46.5v42
		c0,1.65,1.85,3.5,3.5,3.5h21c1.65,0,2.5-1.85,2.5-3.5v-22c0-1.65,1.85-2.5,3.5-2.5h14c1.65,0,2.5,0.85,2.5,2.5v22
		c0,1.65,1.85,3.5,3.5,3.5h21c1.65,0,2.5-1.85,2.5-3.5v-42c0-1.65-0.737-3.921-1.944-5.046L51.694,11.046z"/>
	<path fill="none" stroke="#000000" stroke-width="3" stroke-miterlimit="10" d="M51.694,11.046c-1.207-1.125-3.182-1.125-4.389,0
		L14.694,41.454C13.487,42.579,12.5,44.85,12.5,46.5v42c0,1.65,1.35,3,3,3h21c1.65,0,3-1.35,3-3v-22c0-1.65,1.35-3,3-3h14
		c1.65,0,3,1.35,3,3v22c0,1.65,1.35,3,3,3h21c1.65,0,3-1.35,3-3v-42c0-1.65-0.987-3.921-2.194-5.046L51.694,11.046z"/>
</g>
</svg>
